<?xml version="1.0" encoding="UTF-8"?>
<svg width="209px" height="50px" viewBox="0 0 209 50" version="1.1" xmlns="http://www.w3.org/2000/svg" xmlns:xlink="http://www.w3.org/1999/xlink">
    <title>Group 5</title>
    <g id="Page-1" stroke="none" stroke-width="1" fill="none" fill-rule="evenodd">
        <g id="Group-5" transform="translate(0.337, 0)" fill="#000000" fill-rule="nonzero">
            <g id="Group-3-Copy" transform="translate(0.688, 0)">
                <g id="book_circle-copy-6" transform="translate(62.975, 0)">
                    <path d="M14.4999393,29 C22.4180676,29 29,22.4323212 29,14.5 C29,6.58187172 22.4038747,0 14.4857464,0 C6.55336459,0 0,6.58187172 0,14.5 C0,22.4323212 6.56761816,29 14.4999393,29 Z M14.4999393,26.5833232 C7.79014946,26.5833232 2.43080903,21.2097899 2.43080903,14.5 C2.43080903,7.80440302 7.77595655,2.41667678 14.4857464,2.41667678 C21.1812828,2.41667678 26.569009,7.80440302 26.5833514,14.5 C26.5975768,21.2097899 21.1955363,26.5833232 14.4999393,26.5833232 Z M10.8180919,20.0440909 C12.125902,20.0440909 12.9219787,20.5558849 13.3342403,20.8117818 C13.4622192,20.882807 13.8460343,21.1102575 13.9171202,21.1245111 L13.9171202,9.36811008 C13.4053262,8.38728285 12.0548767,7.66229195 10.4484697,7.66229195 C8.64305852,7.66229195 7.0082656,8.5010081 6.49653229,9.53872829 L6.49653229,20.5274384 C6.49653229,21.0391717 6.79506866,21.2239828 7.1646909,21.2239828 C7.46316661,21.2239828 7.64797773,21.1245111 7.83278885,20.9823394 C8.30194342,20.5558849 9.36811008,20.0440909 10.8180919,20.0440909 Z M18.1675939,20.0440909 C19.6033828,20.0440909 20.6837424,20.5558849 21.1528969,20.9823394 C21.3234545,21.1245111 21.5224585,21.2239828 21.8209949,21.2239828 C22.1906171,21.2239828 22.4748999,21.0391717 22.4748999,20.5274384 L22.4748999,9.53872829 C21.9631666,8.5010081 20.3283737,7.66229195 18.5229626,7.66229195 C16.9450626,7.66229195 15.5945525,8.38728285 15.0685656,9.36811008 L15.0685656,21.1529576 C15.1680373,21.138704 15.5092737,20.8970606 15.6513848,20.8117818 C16.0494535,20.5416313 16.8597232,20.0440909 18.1675939,20.0440909 Z" id="Shape"></path>
                </g>
                <g id="MIP-Copy-2" transform="translate(0, 3.31)">
                    <polygon id="Path" points="0 21.6900036 5.83500096 21.6900036 5.83500096 5.97000098 10.0800017 21.6900036 14.2800023 21.6900036 18.510003 5.97000098 18.510003 21.6900036 24.360004 21.6900036 24.360004 0 15.7200026 0 12.180002 13.2300022 8.67000142 0 0 0"></polygon>
                    <polygon id="Path" points="28.41 21.6900036 34.245001 21.6900036 34.245001 0 28.41 0"></polygon>
                    <path d="M38.295,21.6900036 L44.130001,21.6900036 L44.130001,14.2200023 L47.6250015,14.2200023 C52.3950023,14.2200023 55.3800028,11.6400019 55.3800028,7.3500012 C55.3800028,2.64000043 51.6750022,0 46.8750014,0 L38.295,0 L38.295,21.6900036 Z M44.0700009,9.87000162 L44.0700009,4.32000071 L47.4450015,4.32000071 C48.7350017,4.32000071 50.0250019,5.55000091 50.0250019,7.05000116 C50.0250019,8.46000139 48.9150017,9.87000162 47.4450015,9.87000162 L44.0700009,9.87000162 Z" id="Shape"></path>
                </g>
            </g>
            <g id="MITRE-Interoperabili" transform="translate(0, 36.598)">
                <polygon id="Path" points="0 10.4020017 1.33000022 10.4020017 1.33000022 2.29600038 4.2420007 10.4020017 5.45300089 10.4020017 8.38600137 2.21900036 8.38600137 10.4020017 9.72300159 10.4020017 9.72300159 0.280000046 7.9380013 0.280000046 4.84400079 8.63800142 1.79200029 0.280000046 0 0.280000046"></polygon>
                <polygon id="Path" points="12.397 10.4020017 13.6920002 10.4020017 13.6920002 0.280000046 12.397 0.280000046"></polygon>
                <polygon id="Path" points="18.6130004 10.4020017 19.9150006 10.4020017 19.9150006 1.47000024 23.0020011 1.47000024 23.0020011 0.280000046 15.3439998 0.280000046 15.3439998 1.47000024 18.6130004 1.47000024"></polygon>
                <path d="M24.668,10.4020017 L25.9630002,10.4020017 L25.9630002,6.04100099 L28.6860007,6.04100099 L30.534001,10.4020017 L31.9060012,10.4020017 L29.9180009,5.81000095 C30.884001,5.44600089 31.8780012,4.69000077 31.8780012,3.0450005 C31.8780012,1.32300022 30.779001,0.280000046 28.5880006,0.280000046 L24.668,0.280000046 L24.668,10.4020017 Z M25.9630002,4.97000081 L25.9630002,1.33700022 L28.4760006,1.33700022 C29.7710008,1.33700022 30.555001,1.93200032 30.555001,3.12200051 C30.555001,4.34700071 29.6870008,4.97000081 28.1680006,4.97000081 L25.9630002,4.97000081 Z" id="Shape"></path>
                <polygon id="Path" points="34.139 10.4020017 40.6560011 10.4020017 40.6560011 9.24700152 35.4340002 9.23300151 35.4340002 5.85900096 40.012001 5.85900096 40.012001 4.72500077 35.4410002 4.72500077 35.4410002 1.42100023 40.516001 1.42100023 40.523001 0.280000046 34.139 0.280000046"></polygon>
                <polygon id="Path" points="46.228 10.4020017 47.5230002 10.4020017 47.5230002 0.280000046 46.228 0.280000046"></polygon>
                <path d="M49.924,10.4020017 L51.2120002,10.4020017 L51.2120002,5.56500091 C51.2120002,4.59200075 52.1080003,4.13000068 53.0880005,4.13000068 C54.0330006,4.13000068 54.6840007,4.66900077 54.6840007,5.79600095 L54.6840007,10.4020017 L55.9790009,10.4020017 L55.9790009,5.67000093 C55.9790009,3.85000063 54.8170008,3.0590005 53.4450005,3.0590005 C52.2830003,3.0590005 51.5340002,3.61200059 51.1770002,4.21400069 L51.1770002,3.16400052 L49.924,3.16400052 L49.924,10.4020017 Z" id="Path"></path>
                <path d="M60.3540004,10.4370017 C60.8790005,10.4370017 61.2430005,10.3880017 61.4250006,10.3180017 L61.4250006,9.45000155 L60.6340004,9.45000155 C59.9550003,9.45000155 59.7520003,9.38000154 59.7520003,8.61000141 L59.7520003,4.10900067 L61.3830006,4.10900067 L61.3830006,3.15700052 L59.7520003,3.15700052 L59.7520003,1.05700017 L58.8000001,1.05700017 L58.4850001,3.16400052 L57.2739999,3.16400052 L57.2739999,4.10900067 L58.4500001,4.10900067 L58.4500001,8.65200142 C58.4500001,9.81400161 58.8490001,10.4370017 60.3540004,10.4370017 Z" id="Path"></path>
                <path d="M66.0170005,10.5420017 C67.4240007,10.5420017 68.7820009,9.7650016 69.048001,8.28800136 L67.8300008,8.28800136 C67.6480007,9.10700149 66.9200006,9.54100156 65.9960005,9.54100156 C64.5890002,9.54100156 63.9100001,8.45600139 63.9100001,7.08400116 L69.097001,7.08400116 L69.097001,6.60800108 C69.097001,4.41000072 67.9630008,3.0240005 65.9260004,3.0240005 C63.8190001,3.0240005 62.6009999,4.57100075 62.6009999,6.85300112 C62.6009999,9.1630015 63.9940001,10.5420017 66.0170005,10.5420017 Z M63.9170001,6.20900102 C63.9100001,5.13100084 64.5540002,4.00400066 65.9190004,4.00400066 C67.2280007,4.00400066 67.8510008,4.96300081 67.8510008,6.20900102 L63.9170001,6.20900102 Z" id="Shape"></path>
                <path d="M70.889,10.4020017 L72.1770002,10.4020017 L72.1770002,5.90100097 C72.1770002,4.69700077 73.1150003,4.20700069 74.2700005,4.2840007 C74.4170005,4.2840007 74.6760006,4.30500071 74.8160006,4.36800072 L74.8160006,3.11500051 C74.6970006,3.0520005 74.4730005,3.0240005 74.2630005,3.0240005 C73.3460004,3.0240005 72.4850002,3.51400058 72.1210002,4.55700075 L72.1210002,3.16400052 L70.889,3.16400052 L70.889,10.4020017 Z" id="Path"></path>
                <path d="M79.1490004,10.5420017 C81.3050008,10.5420017 82.446001,9.02300148 82.446001,6.81100112 C82.446001,4.37500072 81.1510008,3.0240005 79.1560004,3.0240005 C77.0140001,3.0240005 75.8309999,4.54300074 75.8309999,6.81100112 C75.8309999,9.22600151 77.1400001,10.5420017 79.1490004,10.5420017 Z M79.1560004,9.52000156 C77.7070002,9.52000156 77.1190001,8.30900136 77.1190001,6.78300111 C77.1190001,5.06100083 77.8400002,4.03900066 79.1560004,4.03900066 C80.5770007,4.03900066 81.1650008,5.23600086 81.1650008,6.78300111 C81.1650008,8.48400139 80.4510006,9.52000156 79.1560004,9.52000156 Z" id="Shape"></path>
                <path d="M84.168,12.6560021 L85.4700002,12.6560021 L85.4700002,9.09300149 C85.7710002,9.70900159 86.4500003,10.5420017 87.7450005,10.5420017 C89.6490009,10.5420017 90.783001,9.1700015 90.783001,6.6850011 C90.783001,4.19300069 89.5790008,3.0240005 87.8500006,3.0240005 C86.5200003,3.0240005 85.7990002,3.82900063 85.4700002,4.42400073 L85.4560002,3.16400052 L84.168,3.16400052 L84.168,12.6560021 Z M87.5000005,9.53400156 C86.1560003,9.53400156 85.4560002,8.28800136 85.4560002,6.7270011 C85.4560002,5.13100084 86.1560003,4.03200066 87.5000005,4.03200066 C88.8230007,4.03200066 89.5300008,5.08200083 89.5300008,6.7270011 C89.5300008,8.65200142 88.6900007,9.53400156 87.5000005,9.53400156 Z" id="Shape"></path>
                <path d="M95.5640005,10.5420017 C96.9710007,10.5420017 98.3290009,9.7650016 98.595001,8.28800136 L97.3770008,8.28800136 C97.1950007,9.10700149 96.4670006,9.54100156 95.5430005,9.54100156 C94.1360002,9.54100156 93.4570001,8.45600139 93.4570001,7.08400116 L98.644001,7.08400116 L98.644001,6.60800108 C98.644001,4.41000072 97.5100008,3.0240005 95.4730004,3.0240005 C93.3660001,3.0240005 92.1479999,4.57100075 92.1479999,6.85300112 C92.1479999,9.1630015 93.5410001,10.5420017 95.5640005,10.5420017 Z M93.4640001,6.20900102 C93.4570001,5.13100084 94.1010002,4.00400066 95.4660004,4.00400066 C96.7750007,4.00400066 97.3980008,4.96300081 97.3980008,6.20900102 L93.4640001,6.20900102 Z" id="Shape"></path>
                <path d="M100.436,10.4020017 L101.724,10.4020017 L101.724,5.90100097 C101.724,4.69700077 102.662,4.20700069 103.817001,4.2840007 C103.964001,4.2840007 104.223001,4.30500071 104.363001,4.36800072 L104.363001,3.11500051 C104.244001,3.0520005 104.020001,3.0240005 103.810001,3.0240005 C102.893,3.0240005 102.032,3.51400058 101.668,4.55700075 L101.668,3.16400052 L100.436,3.16400052 L100.436,10.4020017 Z" id="Path"></path>
                <path d="M107.688,10.5420017 C108.724,10.5420017 109.613001,10.1710017 110.173001,9.04400148 L110.271001,10.4020017 L111.377001,10.4020017 L111.377001,5.34800088 C111.377001,3.83600063 110.439001,3.0240005 108.556,3.0240005 C106.799,3.0240005 105.721,3.80100062 105.644,5.20800085 L106.785,5.20800085 C106.96,4.34700071 107.66,3.98300065 108.493,3.97600065 C109.606001,3.97600065 110.124001,4.53600074 110.124001,5.41800089 L110.124001,5.98500098 L108.836,6.02000099 C106.358,6.076001 105.301,6.83900112 105.301,8.44200138 C105.301,9.7650016 106.281,10.5420017 107.688,10.5420017 Z M108.073,9.61100158 C107.184,9.61100158 106.554,9.1350015 106.554,8.31600136 C106.554,7.24500119 107.387,6.83200112 109.053001,6.80400112 L110.124001,6.78300111 L110.124001,8.02200131 C110.124001,8.82700145 109.046001,9.61100158 108.073,9.61100158 Z" id="Shape"></path>
                <path d="M116.977001,10.5420017 C119.014001,10.5420017 120.036001,9.03700148 120.036001,6.75500111 C120.036001,4.2980007 118.881001,3.0240005 117.075001,3.0240005 C115.696,3.0240005 114.94,3.84300063 114.702,4.31200071 L114.702,0 L113.4,0 L113.4,10.4020017 L114.387,10.4020017 L114.527,8.91800146 C114.709,9.48500155 115.283,10.5420017 116.977001,10.5420017 Z M116.746001,9.54800157 C115.283,9.54800157 114.702,8.71500143 114.702,6.6920011 C114.723,4.99800082 115.283,4.03200066 116.718001,4.03200066 C118.034001,4.03200066 118.734001,5.00500082 118.734001,6.6920011 C118.734001,8.68000142 117.915001,9.54800157 116.746001,9.54800157 Z" id="Shape"></path>
                <path d="M121.751,1.63100027 L123.074,1.63100027 L123.074,0.287000047 L121.751,0.287000047 L121.751,1.63100027 Z M121.786,10.4020017 L123.039,10.4020017 L123.039,3.16400052 L121.786,3.16400052 L121.786,10.4020017 Z" id="Shape"></path>
                <path d="M127.134,10.4930017 C127.316,10.4930017 127.568,10.4510017 127.785,10.3810017 L127.785,9.54100156 L127.393,9.53400156 C126.882,9.49900156 126.581,9.1490015 126.581,8.41400138 L126.581,0 L125.307,0 L125.307,8.5400014 C125.307,9.55500157 125.573,10.4930017 127.134,10.4930017 Z" id="Path"></path>
                <path d="M129.479,1.63100027 L130.802,1.63100027 L130.802,0.287000047 L129.479,0.287000047 L129.479,1.63100027 Z M129.514,10.4020017 L130.767,10.4020017 L130.767,3.16400052 L129.514,3.16400052 L129.514,10.4020017 Z" id="Shape"></path>
                <path d="M135.597,10.4370017 C136.122,10.4370017 136.486001,10.3880017 136.668001,10.3180017 L136.668001,9.45000155 L135.877,9.45000155 C135.198,9.45000155 134.995,9.38000154 134.995,8.61000141 L134.995,4.10900067 L136.626001,4.10900067 L136.626001,3.15700052 L134.995,3.15700052 L134.995,1.05700017 L134.043,1.05700017 L133.728,3.16400052 L132.517,3.16400052 L132.517,4.10900067 L133.693,4.10900067 L133.693,8.65200142 C133.693,9.81400161 134.092,10.4370017 135.597,10.4370017 Z" id="Path"></path>
                <path d="M139.111,12.7120021 C140.112,12.7120021 140.868,12.327002 141.435,10.9480018 L144.480001,3.16400052 L143.213001,3.16400052 L141.092,8.75000143 L138.957,3.16400052 L137.648,3.16400052 L140.476,10.2270017 L140.224,10.9130018 C140.077,11.2700018 139.818,11.7460019 138.74,11.7040019 L137.998,11.6900019 L137.998,12.5300021 C137.998,12.5300021 138.264,12.7120021 139.111,12.7120021 Z" id="Path"></path>
                <path d="M149.499,10.4020017 L150.829,10.4020017 L150.829,6.65700109 L153.097001,6.65700109 C155.225001,6.65700109 156.674001,5.5020009 156.674001,3.47900057 C156.674001,1.39300023 155.092001,0.280000046 152.922001,0.280000046 L149.499,0.280000046 L149.499,10.4020017 Z M150.822,5.56500091 L150.822,1.35800022 L153.006001,1.35800022 C154.427001,1.35800022 155.414001,2.05800034 155.414001,3.40200056 C155.414001,4.73200078 154.455001,5.56500091 153.069001,5.56500091 L150.822,5.56500091 Z" id="Shape"></path>
                <path d="M159.971,10.4930017 C160.153,10.4930017 160.405,10.4510017 160.622,10.3810017 L160.622,9.54100156 L160.23,9.53400156 C159.719,9.49900156 159.418,9.1490015 159.418,8.41400138 L159.418,0 L158.144,0 L158.144,8.5400014 C158.144,9.55500157 158.41,10.4930017 159.971,10.4930017 Z" id="Path"></path>
                <path d="M164.346,10.5420017 C165.382,10.5420017 166.271001,10.1710017 166.831001,9.04400148 L166.929001,10.4020017 L168.035001,10.4020017 L168.035001,5.34800088 C168.035001,3.83600063 167.097001,3.0240005 165.214,3.0240005 C163.457,3.0240005 162.379,3.80100062 162.302,5.20800085 L163.443,5.20800085 C163.618,4.34700071 164.318,3.98300065 165.151,3.97600065 C166.264001,3.97600065 166.782001,4.53600074 166.782001,5.41800089 L166.782001,5.98500098 L165.494,6.02000099 C163.016,6.076001 161.959,6.83900112 161.959,8.44200138 C161.959,9.7650016 162.939,10.5420017 164.346,10.5420017 Z M164.731,9.61100158 C163.842,9.61100158 163.212,9.1350015 163.212,8.31600136 C163.212,7.24500119 164.045,6.83200112 165.711001,6.80400112 L166.782001,6.78300111 L166.782001,8.02200131 C166.782001,8.82700145 165.704001,9.61100158 164.731,9.61100158 Z" id="Shape"></path>
                <path d="M170.548,12.7120021 C171.549,12.7120021 172.305,12.327002 172.872,10.9480018 L175.917001,3.16400052 L174.650001,3.16400052 L172.529,8.75000143 L170.394,3.16400052 L169.085,3.16400052 L171.913,10.2270017 L171.661,10.9130018 C171.514,11.2700018 171.255,11.7460019 170.177,11.7040019 L169.435,11.6900019 L169.435,12.5300021 C169.435,12.5300021 169.701,12.7120021 170.548,12.7120021 Z" id="Path"></path>
                <path d="M180.894001,10.5420017 C182.931001,10.5420017 183.953001,9.03700148 183.953001,6.75500111 C183.953001,4.2980007 182.798001,3.0240005 180.992001,3.0240005 C179.613,3.0240005 178.857,3.84300063 178.619,4.31200071 L178.619,0 L177.317,0 L177.317,10.4020017 L178.304,10.4020017 L178.444,8.91800146 C178.626,9.48500155 179.2,10.5420017 180.894001,10.5420017 Z M180.663001,9.54800157 C179.2,9.54800157 178.619,8.71500143 178.619,6.6920011 C178.64,4.99800082 179.2,4.03200066 180.635001,4.03200066 C181.951001,4.03200066 182.651001,5.00500082 182.651001,6.6920011 C182.651001,8.68000142 181.832001,9.54800157 180.663001,9.54800157 Z" id="Shape"></path>
                <path d="M188.566,10.5420017 C190.722001,10.5420017 191.863001,9.02300148 191.863001,6.81100112 C191.863001,4.37500072 190.568001,3.0240005 188.573,3.0240005 C186.431,3.0240005 185.248,4.54300074 185.248,6.81100112 C185.248,9.22600151 186.557,10.5420017 188.566,10.5420017 Z M188.573,9.52000156 C187.124,9.52000156 186.536,8.30900136 186.536,6.78300111 C186.536,5.06100083 187.257,4.03900066 188.573,4.03900066 C189.994001,4.03900066 190.582001,5.23600086 190.582001,6.78300111 C190.582001,8.48400139 189.868001,9.52000156 188.573,9.52000156 Z" id="Shape"></path>
                <path d="M196.483,10.5420017 C198.639001,10.5420017 199.780001,9.02300148 199.780001,6.81100112 C199.780001,4.37500072 198.485001,3.0240005 196.49,3.0240005 C194.348,3.0240005 193.165,4.54300074 193.165,6.81100112 C193.165,9.22600151 194.474,10.5420017 196.483,10.5420017 Z M196.49,9.52000156 C195.041,9.52000156 194.453,8.30900136 194.453,6.78300111 C194.453,5.06100083 195.174,4.03900066 196.49,4.03900066 C197.911001,4.03900066 198.499001,5.23600086 198.499001,6.78300111 C198.499001,8.48400139 197.785001,9.52000156 196.49,9.52000156 Z" id="Shape"></path>
                <polygon id="Path" points="201.502 10.4020017 202.79 10.4020017 202.79 8.24600135 204.218 6.76900111 206.486001 10.4020017 207.858001 10.4020017 205.065001 5.92200097 207.676001 3.16400052 206.192001 3.16400052 202.79 6.78300111 202.79 0 201.502 0"></polygon>
            </g>
        </g>
    </g>
</svg>