<?xml version="1.0" encoding="UTF-8"?>
<svg width="134px" height="29px" viewBox="0 0 134 29" version="1.1" xmlns="http://www.w3.org/2000/svg" xmlns:xlink="http://www.w3.org/1999/xlink">
    <title>Group 2 Copy 7</title>
    <g id="Page-1" stroke="none" stroke-width="1" fill="none" fill-rule="evenodd">
        <g id="Group-2-Copy-7" transform="translate(0.292, 0)" fill="#000000" fill-rule="nonzero">
            <g id="Group-2-Copy-5">
                <g id="book_circle-copy-2" transform="translate(104.708, 0)">
                    <path d="M14.4999393,29 C22.4180676,29 29,22.4323212 29,14.5 C29,6.58187172 22.4038747,0 14.4857464,0 C6.55336459,0 0,6.58187172 0,14.5 C0,22.4323212 6.56761816,29 14.4999393,29 Z M14.4999393,26.5833232 C7.79014946,26.5833232 2.43080903,21.2097899 2.43080903,14.5 C2.43080903,7.80440302 7.77595655,2.41667678 14.4857464,2.41667678 C21.1812828,2.41667678 26.569009,7.80440302 26.5833514,14.5 C26.5975768,21.2097899 21.1955363,26.5833232 14.4999393,26.5833232 Z M10.8180919,20.0440909 C12.125902,20.0440909 12.9219787,20.5558849 13.3342403,20.8117818 C13.4622192,20.882807 13.8460343,21.1102575 13.9171202,21.1245111 L13.9171202,9.36811008 C13.4053262,8.38728285 12.0548767,7.66229195 10.4484697,7.66229195 C8.64305852,7.66229195 7.0082656,8.5010081 6.49653229,9.53872829 L6.49653229,20.5274384 C6.49653229,21.0391717 6.79506866,21.2239828 7.1646909,21.2239828 C7.46316661,21.2239828 7.64797773,21.1245111 7.83278885,20.9823394 C8.30194342,20.5558849 9.36811008,20.0440909 10.8180919,20.0440909 Z M18.1675939,20.0440909 C19.6033828,20.0440909 20.6837424,20.5558849 21.1528969,20.9823394 C21.3234545,21.1245111 21.5224585,21.2239828 21.8209949,21.2239828 C22.1906171,21.2239828 22.4748999,21.0391717 22.4748999,20.5274384 L22.4748999,9.53872829 C21.9631666,8.5010081 20.3283737,7.66229195 18.5229626,7.66229195 C16.9450626,7.66229195 15.5945525,8.38728285 15.0685656,9.36811008 L15.0685656,21.1529576 C15.1680373,21.138704 15.5092737,20.8970606 15.6513848,20.8117818 C16.0494535,20.5416313 16.8597232,20.0440909 18.1675939,20.0440909 Z" id="Shape"></path>
                </g>
                <g id="Playbook" transform="translate(0, 4.168)">
                    <path d="M0,17.8320029 L2.28000037,17.8320029 L2.28000037,11.4120019 L6.16800101,11.4120019 C9.81600161,11.4120019 12.300002,9.43200155 12.300002,5.96400098 C12.300002,2.38800039 9.58800157,0.480000079 5.86800096,0.480000079 L0,0.480000079 L0,17.8320029 Z M2.26800037,9.54000156 L2.26800037,2.32800038 L6.01200099,2.32800038 C8.44800138,2.32800038 10.1400017,3.52800058 10.1400017,5.83200096 C10.1400017,8.11200133 8.49600139,9.54000156 6.120001,9.54000156 L2.26800037,9.54000156 Z" id="Shape"></path>
                    <path d="M17.9520004,17.9880029 C18.2640005,17.9880029 18.6960006,17.9160029 19.0680006,17.7960029 L19.0680006,16.3560027 L18.3960005,16.3440027 C17.5200004,16.2840027 17.0040003,15.6840026 17.0040003,14.4240024 L17.0040003,0 L14.8199999,0 L14.8199999,14.6400024 C14.8199999,16.3800027 15.276,17.9880029 17.9520004,17.9880029 Z" id="Path"></path>
                    <path d="M25.4520005,18.072003 C27.2280008,18.072003 28.752001,17.4360029 29.7120012,15.5040025 L29.8800012,17.8320029 L31.7760015,17.8320029 L31.7760015,9.1680015 C31.7760015,6.57600108 30.1680013,5.18400085 26.9400007,5.18400085 C23.9280002,5.18400085 22.0799999,6.51600107 21.9479999,8.92800146 L23.9040002,8.92800146 C24.2040003,7.45200122 25.4040005,6.82800112 26.8320007,6.81600112 C28.740001,6.81600112 29.6280012,7.77600127 29.6280012,9.28800152 L29.6280012,10.2600017 L27.4200008,10.3200017 C23.1720001,10.4160017 21.3599998,11.7240019 21.3599998,14.4720024 C21.3599998,16.7400027 23.0400001,18.072003 25.4520005,18.072003 Z M26.1120006,16.4760027 C24.5880004,16.4760027 23.5080002,15.6600026 23.5080002,14.2560023 C23.5080002,12.420002 24.9360004,11.7120019 27.7920009,11.6640019 L29.6280012,11.6280019 L29.6280012,13.7520023 C29.6280012,15.1320025 27.7800009,16.4760027 26.1120006,16.4760027 Z" id="Shape"></path>
                    <path d="M36.0840001,21.7920036 C37.8000004,21.7920036 39.0960006,21.1320035 40.0680008,18.7680031 L45.2880016,5.42400089 L43.1160013,5.42400089 L39.4800007,15.0000025 L35.8200001,5.42400089 L33.5759997,5.42400089 L38.4240005,17.5320029 L37.9920004,18.7080031 C37.7400004,19.3200032 37.2960003,20.1360033 35.448,20.0640033 L34.1759998,20.0400033 L34.1759998,21.4800035 C34.1759998,21.4800035 34.6319999,21.7920036 36.0840001,21.7920036 Z" id="Path"></path>
                    <path d="M53.8200009,18.072003 C57.3120015,18.072003 59.0640018,15.4920025 59.0640018,11.5800019 C59.0640018,7.36800121 57.0840015,5.18400085 53.988001,5.18400085 C51.6240006,5.18400085 50.3280004,6.58800108 49.9200003,7.39200121 L49.9200003,0 L47.6879999,0 L47.6879999,17.8320029 L49.3800002,17.8320029 L49.6200002,15.2880025 C49.9320003,16.2600027 50.9160005,18.072003 53.8200009,18.072003 Z M53.4240009,16.3680027 C50.9160005,16.3680027 49.9200003,14.9400024 49.9200003,11.4720019 C49.9560003,8.5680014 50.9160005,6.91200113 53.3760009,6.91200113 C55.6320012,6.91200113 56.8320014,8.58000141 56.8320014,11.4720019 C56.8320014,14.8800024 55.4280012,16.3680027 53.4240009,16.3680027 Z" id="Shape"></path>
                    <path d="M66.9720007,18.072003 C70.6680013,18.072003 72.6240017,15.4680025 72.6240017,11.6760019 C72.6240017,7.50000123 70.4040013,5.18400085 66.9840007,5.18400085 C63.3120001,5.18400085 61.2839998,7.78800128 61.2839998,11.6760019 C61.2839998,15.8160026 63.5280002,18.072003 66.9720007,18.072003 Z M66.9840007,16.3200027 C64.5000003,16.3200027 63.4920002,14.2440023 63.4920002,11.6280019 C63.4920002,8.67600142 64.7280004,6.92400113 66.9840007,6.92400113 C69.4200011,6.92400113 70.4280013,8.97600147 70.4280013,11.6280019 C70.4280013,14.5440024 69.2040011,16.3200027 66.9840007,16.3200027 Z" id="Shape"></path>
                    <path d="M80.5440007,18.072003 C84.2400013,18.072003 86.1960017,15.4680025 86.1960017,11.6760019 C86.1960017,7.50000123 83.9760013,5.18400085 80.5560007,5.18400085 C76.8840001,5.18400085 74.8559998,7.78800128 74.8559998,11.6760019 C74.8559998,15.8160026 77.1000002,18.072003 80.5440007,18.072003 Z M80.5560007,16.3200027 C78.0720003,16.3200027 77.0640002,14.2440023 77.0640002,11.6280019 C77.0640002,8.67600142 78.3000004,6.92400113 80.5560007,6.92400113 C82.9920011,6.92400113 84.0000013,8.97600147 84.0000013,11.6280019 C84.0000013,14.5440024 82.7760011,16.3200027 80.5560007,16.3200027 Z" id="Shape"></path>
                    <polygon id="Path" points="89.1479999 17.8320029 91.3560003 17.8320029 91.3560003 14.1360023 93.8040007 11.6040019 97.6920013 17.8320029 100.044002 17.8320029 95.2560009 10.1520017 99.7320017 5.42400089 97.1880012 5.42400089 91.3560003 11.6280019 91.3560003 0 89.1479999 0"></polygon>
                </g>
            </g>
        </g>
    </g>
</svg>