<?xml version="1.0" encoding="UTF-8"?>
<svg width="167px" height="39px" viewBox="0 0 167 39" version="1.1" xmlns="http://www.w3.org/2000/svg" xmlns:xlink="http://www.w3.org/1999/xlink">
    <title>Group</title>
    <g id="Page-1" stroke="none" stroke-width="1" fill="none" fill-rule="evenodd">
        <g id="Group">
            <path d="M10,0 L167,0 L167,0 L167,29 C167,34.5228475 162.522847,39 157,39 L0,39 L0,39 L0,10 C-6.76353751e-16,4.4771525 4.4771525,6.76353751e-16 10,0 Z" id="Rectangle" fill="#3764D4"></path>
            <g id="Playbook-Logo" transform="translate(9.08, 13.112)" fill="#FFFFFF" fill-rule="nonzero">
                <path d="M0,11.8880019 L3.11200051,11.8880019 L3.11200051,7.9040013 L4.97600082,7.9040013 C7.52000123,7.9040013 9.11200149,6.52800107 9.11200149,4.24000069 C9.11200149,1.72800028 7.13600117,0.320000052 4.57600075,0.320000052 L0,0.320000052 L0,11.8880019 Z M3.0800005,5.58400092 L3.0800005,2.62400043 L4.8800008,2.62400043 C5.56800091,2.62400043 6.25600103,3.28000054 6.25600103,4.08000067 C6.25600103,4.83200079 5.66400093,5.58400092 4.8800008,5.58400092 L3.0800005,5.58400092 Z" id="Shape"></path>
                <path d="M13.5360005,12.064002 C13.9360005,12.064002 14.3360006,11.952002 14.7120007,11.8080019 L14.7120007,9.92000163 L14.3760006,9.88800162 C13.5360005,9.7760016 13.4400005,9.37600154 13.4400005,8.97600147 L13.4400005,0 L10.392,0 L10.392,9.39200154 C10.392,10.6080017 10.48,12.064002 13.5360005,12.064002 Z" id="Path"></path>
                <path d="M18.5360004,12.048002 C19.6640006,12.048002 20.3440007,11.6960019 20.8400008,10.5760017 L21.1120008,11.8880019 L23.6880012,11.8880019 L23.6880012,6.03200099 C23.6880012,4.51200074 22.8240011,3.45600057 19.9440006,3.45600057 C17.8160003,3.45600057 16.088,4.24000069 16,6.19200101 L18.5200004,6.19200101 C18.7760004,5.63200092 19.3680005,5.4880009 19.8000006,5.4720009 C20.4240007,5.45600057 20.7120007,5.69600093 20.7120007,6.22400102 L20.7120007,6.57600108 L20.0720006,6.57600108 C17.0640001,6.57600108 15.6799999,7.61600125 15.6799999,9.40800154 C15.6799999,11.1200018 16.9760001,12.048002 18.5360004,12.048002 Z M19.6320006,10.0800017 C19.0960005,10.0800017 18.6000004,9.71200159 18.6000004,9.08800149 C18.6000004,8.27200136 19.7200006,8.04800132 20.2160007,8.04800132 L20.7120007,8.04800132 L20.7120007,9.08800149 C20.6960007,9.61600158 20.2320007,10.0800017 19.6320006,10.0800017 Z" id="Shape"></path>
                <path d="M26.6080002,14.5280024 C28.0320005,14.5280024 29.1440007,14.0160023 30.2160008,11.4080019 L33.4480014,3.61600059 L30.4000009,3.61600059 L28.7760006,8.11200133 L27.2080003,3.61600059 L24.1519998,3.61600059 L27.3600004,11.4080019 L27.3280004,11.5680019 C27.2960003,11.6640019 27.2240003,12.384002 25.6000001,12.256002 L24.8079999,12.208002 L24.8079999,14.1760023 C24.8079999,14.1760023 25.328,14.5280024 26.6080002,14.5280024 Z" id="Path"></path>
                <path d="M39.3760008,12.048002 C41.6640012,12.048002 42.9280014,10.3360017 42.9280014,7.69600126 C42.9280014,5.08800083 41.7440012,3.45600057 39.7120008,3.45600057 C38.8880007,3.45600057 37.9360005,3.71200061 37.4240005,4.56000075 L37.4240005,0 L34.304,0 L34.304,11.8880019 L36.5040003,11.8880019 L36.8720004,10.1920017 C37.2480004,11.3440019 38.0320006,12.048002 39.3760008,12.048002 Z M38.6400007,9.87200162 C37.9120005,9.87200162 37.4240005,9.32800153 37.4240005,7.69600126 C37.4240005,6.22400102 37.9120005,5.64800093 38.6400007,5.64800093 C39.3440008,5.64800093 39.9200009,6.16000101 39.9200009,7.69600126 C39.9200009,9.32800153 39.3440008,9.87200162 38.6400007,9.87200162 Z" id="Shape"></path>
                <path d="M48.0800006,12.048002 C50.656001,12.048002 52.2880013,10.2720017 52.2880013,7.80800128 C52.2880013,5.29600087 50.680001,3.45600057 48.0960006,3.45600057 C45.6320002,3.45600057 43.8879999,5.20000085 43.8879999,7.80800128 C43.8879999,10.2880017 45.5200002,12.048002 48.0800006,12.048002 Z M48.0960006,9.79200161 C47.0880004,9.79200161 46.9120004,8.57600141 46.9120004,7.69600126 C46.9120004,6.80000111 47.0880004,5.68000093 48.0960006,5.68000093 C49.0880008,5.68000093 49.2640008,6.80000111 49.2640008,7.69600126 C49.2640008,8.57600141 49.0880008,9.79200161 48.0960006,9.79200161 Z" id="Shape"></path>
                <path d="M57.4400006,12.048002 C60.016001,12.048002 61.6480013,10.2720017 61.6480013,7.80800128 C61.6480013,5.29600087 60.040001,3.45600057 57.4560006,3.45600057 C54.9920002,3.45600057 53.2479999,5.20000085 53.2479999,7.80800128 C53.2479999,10.2880017 54.8800002,12.048002 57.4400006,12.048002 Z M57.4560006,9.79200161 C56.4480004,9.79200161 56.2720004,8.57600141 56.2720004,7.69600126 C56.2720004,6.80000111 56.4480004,5.68000093 57.4560006,5.68000093 C58.4480008,5.68000093 58.6240008,6.80000111 58.6240008,7.69600126 C58.6240008,8.57600141 58.4480008,9.79200161 57.4560006,9.79200161 Z" id="Shape"></path>
                <polygon id="Path" points="62.928 11.8880019 66.0400005 11.8880019 66.0400005 9.55200157 66.6480006 8.84800145 68.5600009 11.8880019 71.5840014 11.8880019 68.5440009 7.04000115 71.5680014 3.61600059 68.3120008 3.61600059 66.0400005 6.40000105 66.0400005 0 62.928 0"></polygon>
                <polygon id="Path" points="76.104 11.8880019 83.8400013 11.8880019 83.8400013 9.32800153 79.2160005 9.32800153 79.2160005 0.320000052 76.104 0.320000052"></polygon>
                <path d="M88.9440006,12.048002 C91.520001,12.048002 93.1520013,10.2720017 93.1520013,7.80800128 C93.1520013,5.29600087 91.544001,3.45600057 88.9600006,3.45600057 C86.4960002,3.45600057 84.7519999,5.20000085 84.7519999,7.80800128 C84.7519999,10.2880017 86.3840002,12.048002 88.9440006,12.048002 Z M88.9600006,9.79200161 C87.9520004,9.79200161 87.7760004,8.57600141 87.7760004,7.69600126 C87.7760004,6.80000111 87.9520004,5.68000093 88.9600006,5.68000093 C89.9520008,5.68000093 90.1280008,6.80000111 90.1280008,7.69600126 C90.1280008,8.57600141 89.9520008,9.79200161 88.9600006,9.79200161 Z" id="Shape"></path>
                <path d="M98.4160006,14.6240024 C101.552001,14.6240024 103.136001,13.4400022 103.136001,11.8400019 C103.136001,10.5600017 102.128001,9.52000156 99.8400009,9.36000153 C99.1360008,9.31200153 98.4800006,9.28000152 98.1920006,9.26400152 C97.3760005,9.21600151 96.8640004,9.21600151 96.8640004,8.99200147 C96.8640004,8.91200146 96.9280004,8.88000146 97.0880004,8.84800145 C97.3600005,8.88000146 97.9360006,8.89600146 98.1920006,8.89600146 C100.816001,8.89600146 102.208001,7.45600122 102.208001,6.04800099 C102.208001,5.95200098 102.176001,5.64800093 102.112001,5.40800089 L103.520001,5.21600085 L103.536001,3.00800049 C102.624001,3.39200056 101.440001,3.84000063 100.816001,4.08000067 C100.208001,3.76000062 99.5679998,3.48800057 98.3840006,3.48800057 C96.1280003,3.48800057 94.1759999,4.40000072 94.1759999,6.06400099 C94.1759999,6.94400114 94.752,8.00000131 95.9520002,8.5280014 C94.656,8.70400143 94.0479999,9.32800153 94.0479999,9.98400164 C94.0479999,10.8960018 94.9760001,11.2480018 95.2160001,11.3760019 C95.0880001,11.4080019 93.5679998,11.6480019 93.5679998,12.7200021 C93.5679998,13.7760023 95.1520001,14.6240024 98.4160006,14.6240024 Z M98.2880006,7.26400119 C97.6960005,7.26400119 97.2960004,6.80000111 97.2960004,6.17600101 C97.2960004,5.55200091 97.6960005,5.00800082 98.2880006,5.00800082 C98.8800007,5.00800082 99.2800008,5.55200091 99.2800008,6.17600101 C99.2800008,6.80000111 98.8800007,7.26400119 98.2880006,7.26400119 Z M98.8960007,12.9920021 C97.3120005,12.9920021 96.5920003,12.8800021 96.5920003,12.352002 C96.5920003,12.080002 96.8000004,11.7120019 97.6640005,11.7600019 L99.1680008,11.8560019 C99.8080009,11.904002 100.192001,12.128002 100.192001,12.480002 C100.192001,12.7840021 99.9840009,12.9920021 98.8960007,12.9920021 Z" id="Shape"></path>
                <path d="M108.128001,12.048002 C110.704001,12.048002 112.336001,10.2720017 112.336001,7.80800128 C112.336001,5.29600087 110.728001,3.45600057 108.144001,3.45600057 C105.68,3.45600057 103.936,5.20000085 103.936,7.80800128 C103.936,10.2880017 105.568,12.048002 108.128001,12.048002 Z M108.144001,9.79200161 C107.136,9.79200161 106.96,8.57600141 106.96,7.69600126 C106.96,6.80000111 107.136,5.68000093 108.144001,5.68000093 C109.136001,5.68000093 109.312001,6.80000111 109.312001,7.69600126 C109.312001,8.57600141 109.136001,9.79200161 108.144001,9.79200161 Z" id="Shape"></path>
            </g>
            <g id="book_circle" transform="translate(130, 5)" fill="#FFFFFF" fill-rule="nonzero">
                <path d="M14.4999393,29 C22.4180676,29 29,22.4323212 29,14.5 C29,6.58187172 22.4038747,0 14.4857464,0 C6.55336459,0 0,6.58187172 0,14.5 C0,22.4323212 6.56761816,29 14.4999393,29 Z M14.4999393,26.5833232 C7.79014946,26.5833232 2.43080903,21.2097899 2.43080903,14.5 C2.43080903,7.80440302 7.77595655,2.41667678 14.4857464,2.41667678 C21.1812828,2.41667678 26.569009,7.80440302 26.5833514,14.5 C26.5975768,21.2097899 21.1955363,26.5833232 14.4999393,26.5833232 Z M10.8180919,20.0440909 C12.125902,20.0440909 12.9219787,20.5558849 13.3342403,20.8117818 C13.4622192,20.882807 13.8460343,21.1102575 13.9171202,21.1245111 L13.9171202,9.36811008 C13.4053262,8.38728285 12.0548767,7.66229195 10.4484697,7.66229195 C8.64305852,7.66229195 7.0082656,8.5010081 6.49653229,9.53872829 L6.49653229,20.5274384 C6.49653229,21.0391717 6.79506866,21.2239828 7.1646909,21.2239828 C7.46316661,21.2239828 7.64797773,21.1245111 7.83278885,20.9823394 C8.30194342,20.5558849 9.36811008,20.0440909 10.8180919,20.0440909 Z M18.1675939,20.0440909 C19.6033828,20.0440909 20.6837424,20.5558849 21.1528969,20.9823394 C21.3234545,21.1245111 21.5224585,21.2239828 21.8209949,21.2239828 C22.1906171,21.2239828 22.4748999,21.0391717 22.4748999,20.5274384 L22.4748999,9.53872829 C21.9631666,8.5010081 20.3283737,7.66229195 18.5229626,7.66229195 C16.9450626,7.66229195 15.5945525,8.38728285 15.0685656,9.36811008 L15.0685656,21.1529576 C15.1680373,21.138704 15.5092737,20.8970606 15.6513848,20.8117818 C16.0494535,20.5416313 16.8597232,20.0440909 18.1675939,20.0440909 Z" id="Shape"></path>
            </g>
        </g>
    </g>
</svg>