<?xml version="1.0" encoding="UTF-8"?>
<svg width="150px" height="29px" viewBox="0 0 150 29" version="1.1" xmlns="http://www.w3.org/2000/svg" xmlns:xlink="http://www.w3.org/1999/xlink">
    <title>Group 7</title>
    <g id="Page-1" stroke="none" stroke-width="1" fill="none" fill-rule="evenodd">
        <g id="Group-7" transform="translate(0.356, 0)" fill-rule="nonzero">
            <g id="hPlaybook" transform="translate(0, 4.168)">
                <path d="M0,17.8320029 L4.08000067,17.8320029 L4.08000067,10.0680017 C4.08000067,9.06000149 5.02800082,8.50800139 5.95200098,8.50800139 C6.87600113,8.50800139 7.72800127,9.02400148 7.72800127,9.99600164 L7.72800127,17.8320029 L11.8200019,17.8320029 L11.8200019,9.43200155 C11.8200019,6.82800112 9.82800161,5.38800088 7.48800123,5.38800088 C5.53200091,5.38800088 4.65600076,6.42000105 4.06800067,7.20000118 L4.06800067,0 L0,0 L0,17.8320029 Z" id="Path" fill="#D00909"></path>
                <path d="M15.3240002,17.8320029 L17.6040005,17.8320029 L17.6040005,11.4120019 L21.4920012,11.4120019 C25.1400018,11.4120019 27.6240022,9.43200155 27.6240022,5.96400098 C27.6240022,2.38800039 24.9120017,0.480000079 21.1920011,0.480000079 L15.3240002,0.480000079 L15.3240002,17.8320029 Z M17.5920005,9.54000156 L17.5920005,2.32800038 L21.3360011,2.32800038 C23.7720015,2.32800038 25.4640018,3.52800058 25.4640018,5.83200096 C25.4640018,8.11200133 23.8200015,9.54000156 21.4440012,9.54000156 L17.5920005,9.54000156 Z" id="Shape" fill="#1C1D1F"></path>
                <path d="M33.2760006,17.9880029 C33.5880006,17.9880029 34.0200007,17.9160029 34.3920008,17.7960029 L34.3920008,16.3560027 L33.7200007,16.3440027 C32.8440005,16.2840027 32.3280004,15.6840026 32.3280004,14.4240024 L32.3280004,0 L30.1440001,0 L30.1440001,14.6400024 C30.1440001,16.3800027 30.6000002,17.9880029 33.2760006,17.9880029 Z" id="Path" fill="#1C1D1F"></path>
                <path d="M40.8960006,18.072003 C42.6720009,18.072003 44.1960012,17.4360029 45.1560013,15.5040025 L45.3240014,17.8320029 L47.2200017,17.8320029 L47.2200017,9.1680015 C47.2200017,6.57600108 45.6120014,5.18400085 42.3840009,5.18400085 C39.3720004,5.18400085 37.5240001,6.51600107 37.3920001,8.92800146 L39.3480004,8.92800146 C39.6480004,7.45200122 40.8480006,6.82800112 42.2760009,6.81600112 C44.1840012,6.81600112 45.0720013,7.77600127 45.0720013,9.28800152 L45.0720013,10.2600017 L42.864001,10.3200017 C38.6160003,10.4160017 36.804,11.7240019 36.804,14.4720024 C36.804,16.7400027 38.4840003,18.072003 40.8960006,18.072003 Z M41.5560008,16.4760027 C40.0320005,16.4760027 38.9520003,15.6600026 38.9520003,14.2560023 C38.9520003,12.420002 40.3800006,11.7120019 43.236001,11.6640019 L45.0720013,11.6280019 L45.0720013,13.7520023 C45.0720013,15.1320025 43.224001,16.4760027 41.5560008,16.4760027 Z" id="Shape" fill="#1C1D1F"></path>
                <path d="M51.9240003,21.7920036 C53.6400006,21.7920036 54.9360008,21.1320035 55.9080009,18.7680031 L61.1280018,5.42400089 L58.9560014,5.42400089 L55.3200008,15.0000025 L51.6600002,5.42400089 L49.4159999,5.42400089 L54.2640007,17.5320029 L53.8320006,18.7080031 C53.5800006,19.3200032 53.1360005,20.1360033 51.2880002,20.0640033 L50.016,20.0400033 L50.016,21.4800035 C50.016,21.4800035 50.472,21.7920036 51.9240003,21.7920036 Z" id="Path" fill="#1C1D1F"></path>
                <path d="M69.6600011,18.072003 C73.1520017,18.072003 74.9040019,15.4920025 74.9040019,11.5800019 C74.9040019,7.36800121 72.9240016,5.18400085 69.8280011,5.18400085 C67.4640007,5.18400085 66.1680005,6.58800108 65.7600004,7.39200121 L65.7600004,0 L63.5280001,0 L63.5280001,17.8320029 L65.2200004,17.8320029 L65.4600004,15.2880025 C65.7720004,16.2600027 66.7560006,18.072003 69.6600011,18.072003 Z M69.264001,16.3680027 C66.7560006,16.3680027 65.7600004,14.9400024 65.7600004,11.4720019 C65.7960005,8.5680014 66.7560006,6.91200113 69.216001,6.91200113 C71.4720014,6.91200113 72.6720016,8.58000141 72.6720016,11.4720019 C72.6720016,14.8800024 71.2680013,16.3680027 69.264001,16.3680027 Z" id="Shape" fill="#1C1D1F"></path>
                <path d="M82.8120009,18.072003 C86.5080015,18.072003 88.4640018,15.4680025 88.4640018,11.6760019 C88.4640018,7.50000123 86.2440015,5.18400085 82.8240009,5.18400085 C79.1520003,5.18400085 77.124,7.78800128 77.124,11.6760019 C77.124,15.8160026 79.3680003,18.072003 82.8120009,18.072003 Z M82.8240009,16.3200027 C80.3400005,16.3200027 79.3320003,14.2440023 79.3320003,11.6280019 C79.3320003,8.67600142 80.5680005,6.92400113 82.8240009,6.92400113 C85.2600013,6.92400113 86.2680015,8.97600147 86.2680015,11.6280019 C86.2680015,14.5440024 85.0440013,16.3200027 82.8240009,16.3200027 Z" id="Shape" fill="#1C1D1F"></path>
                <path d="M96.3840009,18.072003 C100.080001,18.072003 102.036002,15.4680025 102.036002,11.6760019 C102.036002,7.50000123 99.8160015,5.18400085 96.3960009,5.18400085 C92.7240003,5.18400085 90.696,7.78800128 90.696,11.6760019 C90.696,15.8160026 92.9400003,18.072003 96.3840009,18.072003 Z M96.3960009,16.3200027 C93.9120005,16.3200027 92.9040003,14.2440023 92.9040003,11.6280019 C92.9040003,8.67600142 94.1400005,6.92400113 96.3960009,6.92400113 C98.8320013,6.92400113 99.8400015,8.97600147 99.8400015,11.6280019 C99.8400015,14.5440024 98.6160013,16.3200027 96.3960009,16.3200027 Z" id="Shape" fill="#1C1D1F"></path>
                <polygon id="Path" fill="#1C1D1F" points="104.988 17.8320029 107.196 17.8320029 107.196 14.1360023 109.644001 11.6040019 113.532001 17.8320029 115.884002 17.8320029 111.096001 10.1520017 115.572002 5.42400089 113.028001 5.42400089 107.196 11.6280019 107.196 0 104.988 0"></polygon>
            </g>
            <g id="book_circle-copy-7" transform="translate(120.644, 0)" fill="#000000">
                <path d="M14.4999393,29 C22.4180676,29 29,22.4323212 29,14.5 C29,6.58187172 22.4038747,0 14.4857464,0 C6.55336459,0 0,6.58187172 0,14.5 C0,22.4323212 6.56761816,29 14.4999393,29 Z M14.4999393,26.5833232 C7.79014946,26.5833232 2.43080903,21.2097899 2.43080903,14.5 C2.43080903,7.80440302 7.77595655,2.41667678 14.4857464,2.41667678 C21.1812828,2.41667678 26.569009,7.80440302 26.5833514,14.5 C26.5975768,21.2097899 21.1955363,26.5833232 14.4999393,26.5833232 Z M10.8180919,20.0440909 C12.125902,20.0440909 12.9219787,20.5558849 13.3342403,20.8117818 C13.4622192,20.882807 13.8460343,21.1102575 13.9171202,21.1245111 L13.9171202,9.36811008 C13.4053262,8.38728285 12.0548767,7.66229195 10.4484697,7.66229195 C8.64305852,7.66229195 7.0082656,8.5010081 6.49653229,9.53872829 L6.49653229,20.5274384 C6.49653229,21.0391717 6.79506866,21.2239828 7.1646909,21.2239828 C7.46316661,21.2239828 7.64797773,21.1245111 7.83278885,20.9823394 C8.30194342,20.5558849 9.36811008,20.0440909 10.8180919,20.0440909 Z M18.1675939,20.0440909 C19.6033828,20.0440909 20.6837424,20.5558849 21.1528969,20.9823394 C21.3234545,21.1245111 21.5224585,21.2239828 21.8209949,21.2239828 C22.1906171,21.2239828 22.4748999,21.0391717 22.4748999,20.5274384 L22.4748999,9.53872829 C21.9631666,8.5010081 20.3283737,7.66229195 18.5229626,7.66229195 C16.9450626,7.66229195 15.5945525,8.38728285 15.0685656,9.36811008 L15.0685656,21.1529576 C15.1680373,21.138704 15.5092737,20.8970606 15.6513848,20.8117818 C16.0494535,20.5416313 16.8597232,20.0440909 18.1675939,20.0440909 Z" id="Shape"></path>
            </g>
        </g>
    </g>
</svg>